<?xml version="1.0" standalone="no"?>
<!DOCTYPE svg PUBLIC "-//W3C//DTD SVG 1.1//EN" "http://www.w3.org/Graphics/SVG/1.1/DTD/svg11.dtd" >
<!--
2013-9-30: Created.
-->
<svg>
<metadata>
Created by iconfont
</metadata>
<defs>

<font id="iconfont" horiz-adv-x="1024" >
  <font-face
    font-family="iconfont"
    font-weight="500"
    font-stretch="normal"
    units-per-em="1024"
    ascent="896"
    descent="-128"
  />
    <missing-glyph />
    
    <glyph glyph-name="user2" unicode="&#59084;" d="M994.63884895 21.60188008V-23.44441248999999c0-53.0902734-43.43749639-96.52776979-96.52776979-96.52776979H125.88892084c-53.0902734 0-96.52776979 43.43749639-96.52776979 96.52776979v45.04629257c0 117.44211993 136.74767389 188.22915109 265.45136691 244.5370168 4.82638849 1.60879617 8.04398081 3.21759233 12.87036931 6.43518465 9.65277699 4.82638849 20.91435011 4.82638849 30.56712711-1.60879615C389.73149161 237.18056593999995 449.25694963 217.87501197999995 512 217.87501197999995c62.74305037 0 122.26850839 19.30555395 173.74998562 51.48147722 9.65277699 6.43518466 20.91435011 6.43518466 30.56712711 1.60879618 4.82638849-1.60879617 8.04398081-3.21759233 12.87036931-6.43518465 128.70369303-54.69906955 265.45136692-125.48610073 265.45136691-242.92822065zM272.28937168 579.85414871a265.45136692 239.71062832 90 1 1 479.42125664 0 265.45136692 239.71062832 90 1 1-479.42125664 0Z"  horiz-adv-x="1024" />

    
    <glyph glyph-name="6" unicode="&#58907;" d="M717.3916448 793.6h92.5696C845.77848853 793.6 876.08888853 761.4236448 876.08888853 720.60017813v-673.20035626c0-40.91448853-30.26488853-72.99982187-66.26417706-72.99982187H214.17528853C178.22151147-25.600000000000023 147.91111147 6.576355199999966 147.91111147 47.39982186999998V720.60017813C147.91111147 761.4691551999999 178.22151147 793.6 214.0387552 793.6h92.84266667a45.51111147 45.51111147 0 1 1 0 91.02222187h-92.84266667C126.65742187 884.62222187 56.88888853 810.5756448 56.88888853 720.60017813v-673.20035626C56.88888853-42.43911146999994 126.70293333-116.62222186999998 214.17528853-116.62222186999998h595.64942294C897.34257813-116.62222186999998 967.11111147-42.621155199999976 967.11111147 47.39982186999998V720.60017813C967.11111147 810.43911147 897.34257813 884.62222187 809.9612448 884.62222187h-92.5696a45.51111147 45.51111147 0 1 1 0-91.02222187zM466.48888853 793.6h91.02222294a45.51111147 45.51111147 0 0 1 0 91.02222187h-91.02222294a45.51111147 45.51111147 0 1 1 0-91.02222187zM329.9555552 566.0444448000001h364.0888896a45.51111147 45.51111147 0 0 1 0 91.02222187H329.9555552a45.51111147 45.51111147 0 1 1 0-91.02222187zM329.9555552 338.48888853000005h364.0888896a45.51111147 45.51111147 0 0 1 0 91.02222294H329.9555552a45.51111147 45.51111147 0 0 1 0-91.02222294zM329.9555552 110.93333332999998h364.0888896a45.51111147 45.51111147 0 0 1 0 91.02222187H329.9555552a45.51111147 45.51111147 0 0 1 0-91.02222187z"  horiz-adv-x="1024" />

    
    <glyph glyph-name="user" unicode="&#58996;" d="M955.17959737-70.10184875000004c0.00465693-0.73932686 0.10944398-1.45071218 0.10944398-2.19120298l-0.33182378 0c-1.71733561-24.54450403-21.95744085-43.9835739-46.93971968-43.9835739-24.98111488 0-45.22238407 19.43906987-46.93971968 43.9835739l-0.81617124 0c0.01164288 1.17593771 0.17464434 2.31694677 0.17464434 3.49754254 0 95.40815758-37.88033934 181.80700046-99.14554482 245.09691562l0.08615822 0.08848612c-8.43881017 8.25950891-13.70491677 19.74528-13.70491676 32.48383204 0 25.12781539 20.37050595 45.50065038 45.49832248 45.50065038 13.36377913 0 25.26054514-5.86804679 33.58525554-15.04152804 77.7481307-78.63765219 126.44709945-186.09044253 128.20169273-305.03482482 0.07684323-1.11073735 0.33182379-2.17257415 0.33182379-3.30310542C955.28904135-69.38115072000005 955.18891122-69.72811036999997 955.17959737-70.10184875000004zM512.00116395 277.66842595c-12.79443854 0-25.32108857 1.04786603-37.70103808 2.58706319-174.65822891-18.95705259-310.68165575-167.89949667-310.72822841-348.96018432 0-0.10245803 0.03027171-0.1979301 0.03027171-0.30038813 0-0.05355747-0.01629981-0.10478706-0.0162998-0.15834453 0.02794269-1.05019392 0.14670165-2.07593813 0.1560155-3.12846109l-0.47153948 0c-1.7196635-24.54450403-21.96209778-43.9835739-46.94204758-43.9835739-24.98344277 0-45.22238407 19.43906987-46.93971968 43.9835739l-0.67878456 0c0.00232903 182.18073998 109.98746112 338.53625117 267.10558492 406.69990458-76.85977315 55.0234203-127.11889806 144.83481145-127.11889806 246.56742058 0 167.50945735 135.79406109 303.30118941 303.30351843 303.3011894S815.30468238 748.48489472 815.30468238 580.97543737 679.51062243 277.66842595 512.00116395 277.66842595zM512.00116395 791.36937415c-115.96960882 0-209.97944889-94.00984007-209.97944889-209.97944889s94.00984007-209.97944889 209.97944889-209.97944889 209.98177678 94.00984007 209.98177678 209.97944889S627.97077277 791.36937415 512.00116395 791.36937415z"  horiz-adv-x="1024" />

    
    <glyph glyph-name="icon" unicode="&#58898;" d="M938.97906568 847.05869376h-161.24826291c-7.61802885 33.01145461-38.09014143 58.40488322-73.64094089 58.4048832h-79.98929595c-10.15737088 25.39342855-34.28112846 41.8991545-62.213899 41.89915452s-52.05652535-16.50572871-62.21389626-41.89915452h-81.25896692c-35.55079946 0-66.02291205-25.39342855-73.64094091-58.4048832h-161.2482629c-41.8991545 0-73.64094092-34.28112846-73.64094091-76.18028292v-820.2077068c0-41.8991545 33.01145461-76.18028295 73.64094091-76.18028299h754.18479475c41.8991545 0 77.44995393 34.28112846 77.44995392 76.18028299v820.2077068c1.26967099 41.8991545-34.28112846 76.18028295-76.18028293 76.18028292z m-375.82272492-36.82047042c34.28112846 0 60.94422524-27.93277059 60.94422517-60.94422523 0-34.28112846-27.93277059-60.94422524-60.94422517-60.94422804-34.28112846 0-60.94422524 27.93277059-60.94422809 60.94422804s26.66309961 60.94422524 60.94422809 60.94422523z m232.34985894-631.0266733c0-15.23605771-12.69671286-27.93277059-27.93277063-27.93277067h-408.83417954c-15.23605771 0-27.93277059 12.69671286-27.93277064 27.93277067v25.39342851c0 15.23605771 12.69671286 27.93277059 27.93277064 27.93277061h408.83417954c15.23605771 0 27.93277059-12.69671286 27.93277063-27.93277061v-25.39342851z m0 257.74329039c0-15.23605771-12.69671286-27.93277059-27.93277063-27.93277068h-408.83417954c-15.23605771 0-27.93277059 12.69671286-27.93277064 27.93277068v25.3934257c0 15.23605771 12.69671286 27.93277059 27.93277064 27.9327706h408.83417954c15.23605771 0 27.93277059-12.69671286 27.93277063-27.9327706v-25.3934257z"  horiz-adv-x="1142" />

    
    <glyph glyph-name="gouwuche3" unicode="&#58883;" d="M396.8 200.53333299999997c8.533333-4.266667 21.333333-4.266667 29.866667-4.266666h379.733333c55.466667 0 106.666667 38.4 123.733333 89.6l76.8 256c12.8 38.4 4.266667 81.066667-21.333333 115.2-25.6 34.133333-59.733333 51.2-102.4 51.2H375.466667c-25.6 0-46.933333-8.533333-64-17.066667l-25.6 115.2C277.333333 857.6 230.4 891.733333 179.2 891.733333h-128c-25.6 0-42.666667-17.066667-42.666667-42.666666s17.066667-42.666667 42.666667-42.666667h128c8.533333 0 17.066667-8.533333 21.333333-17.066667l85.333334-413.866666 17.066666-76.8c4.266667-17.066667 12.8-34.133333 21.333334-51.2l-29.866667-59.733334c-17.066667-34.133333-12.8-72.533333 4.266667-102.4 17.066667-25.6 42.666667-42.666667 76.8-46.933333-17.066667-17.066667-25.6-38.4-25.6-64 0-51.2 42.666667-98.133333 98.133333-98.133333s98.133333 42.666667 98.133333 98.133333c0 25.6-8.533333 46.933333-25.6 64h221.866667c-17.066667-17.066667-25.6-38.4-25.6-64 0-51.2 42.666667-98.133333 98.133333-98.133333s98.133333 42.666667 98.133334 98.133333c0 25.6-8.533333 46.933333-25.6 64h46.933333c25.6 0 42.666667 17.066667 42.666667 42.666667s-17.066667 42.666667-42.666667 42.666666H388.266667c-8.533333 0-17.066667 4.266667-17.066667 8.533334s-4.266667 12.8 0 21.333333l25.6 46.933333z m409.6-260.266666c-17.066667 0-34.133333 12.8-34.133333 34.133333s12.8 34.133333 34.133333 34.133333 34.133333-12.8 34.133333-34.133333-12.8-34.133333-34.133333-34.133333z m-362.666667 0c-17.066667 0-34.133333 12.8-34.133333 34.133333s12.8 34.133333 34.133333 34.133333 34.133333-12.8 34.133334-34.133333-17.066667-34.133333-34.133334-34.133333zM332.8 571.733333c0 12.8 4.266667 25.6 8.533333 34.133334 8.533333 8.533333 21.333333 17.066667 34.133334 17.066666h507.733333c12.8 0 25.6-4.266667 34.133333-17.066666 8.533333-12.8 8.533333-25.6 8.533334-38.4l-76.8-256c-4.266667-17.066667-21.333333-29.866667-42.666667-29.866667H426.666667c-21.333333 0-38.4 12.8-42.666667 34.133333l-8.533333 42.666667-8.533334 46.933333-34.133333 166.4z"  horiz-adv-x="1024" />

    
    <glyph glyph-name="user1" unicode="&#59104;" d="M900.3614811-101.45185222999999c-29.12711111 0-48.54518557 19.41807445-48.54518443 48.54518556v97.09037c0 82.52681443-63.10874112 145.63555555-145.63555555 145.63555555H317.81925888c-82.52681443 0-145.63555555-63.10874112-145.63555555-145.63555555v-97.09037c0-29.12711111-19.41807445-48.54518557-48.54518443-48.54518556s-48.54518557 19.41807445-48.54518557 48.54518556v97.09037c0 135.9265189 106.79940779 242.72592555 242.72592555 242.72592668h388.36148224c135.9265189 0 242.72592555-106.79940779 242.72592555-242.72592668v-97.09037c0-29.12711111-19.41807445-48.54518557-48.54518557-48.54518556zM512 384c-135.9265189 0-242.72592555 106.79940779-242.72592555 242.72592555s106.79940779 242.72592555 242.72592555 242.72592668 242.72592555-106.79940779 242.72592555-242.72592668-106.79940779-242.72592555-242.72592555-242.72592555z m0 388.3614811c-82.52681443 0-145.63555555-63.10874112-145.63555555-145.63555555s63.10874112-145.63555555 145.63555555-145.63555556 145.63555555 63.10874112 145.63555555 145.63555556-63.10874112 145.63555555-145.63555555 145.63555555z"  horiz-adv-x="1024" />

    
    <glyph glyph-name="yonghu" unicode="&#58911;" d="M500.264375 256.97239584c-142.1221875 0-253.45125 117.4228125-253.45125 267.33375 0 144.6159375 119.56875 262.2834375 266.5359375 262.2834375 146.9465625 0 266.475-117.6478125 266.475-262.2834375 0-68.596875-26.7646875-133.4728125-75.3440625-182.7075-7.974375-8.0353125-20.8959375-8.09625-28.910625-0.18375-8.0559375 7.933125-8.116875 20.8753125-0.204375 28.910625 40.995 41.505 63.5465625 96.19875 63.5465625 153.96 0 122.0634375-101.188125 221.3915625-225.583125 221.3915625-124.415625 0-225.6440625-99.3065625-225.6440625-221.3915625 0-126.97125 93.3571875-226.4409375 212.5584375-226.4409375 11.285625 0 20.4459375-9.1396875 20.4459375-20.4459375s-9.1396875-20.4253125-20.4253125-20.4253125zM903.5853125-108.66666666000003c-11.3071875 0-20.4459375 9.1396875-20.4459375 20.4459375 0 190.80375-164.9596875 346.03125-367.725 346.03125-202.764375 0-367.7446875-155.2275-367.7446875-346.03125 0-11.3071875-9.1603125-20.4459375-20.4459375-20.4459375s-20.4459375 9.1396875-20.4459375 20.4459375c0 213.35625 183.320625 386.923125 408.6375 386.923125 225.316875 0 408.616875-173.566875 408.616875-386.923125 0-11.285625-9.1396875-20.4459375-20.4459375-20.4459375z"  horiz-adv-x="1024" />

    
    <glyph glyph-name="01" unicode="&#58882;" d="M512 831C265.146 831 65 630.854 65 384c0-246.853 200.147-447 447-447 246.854 0 447 200.147 447 447C959 630.854 758.854 831 512 831zM512 801.2c230.048 0 417.199-187.152 417.199-417.2 0-104.822-38.951-200.671-103.018-274.034-1.603 4.685-3.203 9.385-5.021 13.968-31.08 78.547-94.129 143.471-173.474 178.365-0.218 0.087-0.421 0.159-0.626 0.262 31.647 33.38 51.189 78.367 51.189 128.002 0 102.875-83.377 186.25-186.25 186.25-102.874 0-186.25-83.375-186.25-186.25 0-49.648 19.555-94.652 51.218-128.046-0.394-0.175-0.742-0.291-1.15-0.466-78.851-34.646-141.898-99.57-172.98-178.117-1.818-4.598-3.418-9.283-5.019-13.968C133.753 183.32899999999995 94.8 279.178 94.8 384 94.8 614.048 281.952 801.2 512 801.2zM616.314 314.303c-9.313-8.366-19.541-15.729-30.657-21.697-21.975-11.77-47.03-18.491-73.657-18.491-26.628 0-51.714 6.722-73.686 18.507-11.117 5.968-21.316 13.315-30.629 21.682-31.909 28.664-52.135 70.091-52.135 116.26 0 86.272 70.178 156.45 156.45 156.45s156.449-70.177 156.449-156.45C668.449 384.394 648.225 342.967 616.314 314.303zM221.101 85.34699999999998c1.062 3.885 2.095 7.813 3.302 11.494 26.963 82.721 92.5 151.082 176.909 184.185 30.965-22.96 69.174-36.714 110.688-36.714 41.5 0 79.693 13.735 110.644 36.686 83.799-32.349 149.858-100.999 176.968-184.156 1.193-3.666 2.226-7.594 3.288-11.494C727.687 12.067000000000007 625.06-33.198999999999955 512-33.198999999999955S296.313 12.067000000000007 221.101 85.34699999999998z"  horiz-adv-x="1024" />

    
    <glyph glyph-name="tubiaolunkuo-" unicode="&#58893;" d="M752-96H272c-78 0-138 66-138 144V660C134 738 194 804 272 804h30c12 0 18-6 18-18s-12-18-18-18H272c-54 0-102-48-102-108v-618c0-60 48-108 102-108h480c54 0 102 48 102 108V660c0 60-48 108-102 108h-36c-12 0-18 6-18 18s12 18 18 18h36c78 0 138-66 138-144v-618c0-72-60-138-138-138zM632 708H392c-24 0-48 24-48 48v60c0 24 24 48 48 48h240c24 0 48-24 48-48v-60c0-24-24-48-48-48z m-240 120c-6 0-12-6-12-12v-60c0-6 6-12 12-12h240c6 0 12 6 12 12v60c0 6-6 12-12 12H392zM722 486h-420c-12 0-18 6-18 18s6 18 18 18h420c12 0 18-6 18-18s-6-18-18-18zM722 336h-420c-12 0-18 6-18 18s6 18 18 18h420c12 0 18-6 18-18s-6-18-18-18zM542 186h-240c-12 0-18 6-18 18s6 18 18 18h240c12 0 18-6 18-18s-6-18-18-18z"  horiz-adv-x="1024" />

    
    <glyph glyph-name="gouwuchezhengpin" unicode="&#58897;" d="M862.6176 42.82181866999997H286.74482453c-42.37498133 0-58.3369696 43.04523627-60.81939413 65.83389014L154.6550304 715.23607254c-1.3405088 11.44397547-6.92596373 21.15025493-15.3413824 26.61158827-4.49318827 2.9292608-8.76295787 4.46836373-12.71001173 4.3194176h-87.1330912V790.1556362700001H126.23127253c12.4617696 0.769552 25.07248533-3.6243392 37.06259414-11.41915093 19.38773333-12.61071467 32.17221867-33.8850912 35.0518304-58.36179413l71.29522453-606.75413334c0.02482453-0.2978912 3.84775787-26.78535787 17.10390293-26.78535786h575.87277547v-44.01338134zM815.89837547 166.04935787H242.0115392v43.9885568h573.88683627c13.03272747 0 24.82424213 9.060848 29.29260586 22.5900608a19838.0450912 19838.0450912 0 0 0 51.63442454 152.6194432c22.068752 64.79127253 44.46021867 130.52586667 56.74821866 167.985648 8.56436373 26.2144 9.1849696 46.32203627 1.71287254 56.62409707-6.62807253 9.11049707-19.3132608 9.68145493-19.4373824 9.68145493H185.53638827V663.55200001h750.28790293c3.5746912 0 35.42419413-0.79437547 55.0601696-27.8528 16.433648-22.66453333 17.94792747-54.98569707 4.46836373-96.11946667-12.288-37.58390293-34.7539392-103.5170912-56.92198826-168.50695787a19621.1308608 19621.1308608 0 0 1-51.4854784-152.22225386c-10.42618133-31.6012608-38.9740608-52.80116373-71.0469824-52.80116374zM323.633648-95.00237546000005a91.00567253 91.00567253 0 0 0-90.90637547 90.90637547c0 50.12014507 40.7862304 90.90637547 90.90637547 90.90637546s90.90637547-40.7862304 90.90637653-90.90637546a91.00567253 91.00567253 0 0 0-90.90637653-90.90637547z m0 137.82419413c-25.8668608 0-46.91781867-21.02613333-46.9178176-46.89299413s21.05095787-46.91781867 46.9178176-46.91781867c25.8668608 0 46.91781867 21.05095787 46.91781867 46.91781867s-21.05095787 46.89299413-46.91781867 46.89299413zM838.36431467-95.00237546000005a91.00567253 91.00567253 0 0 0-90.90637547 90.90637547 91.00567253 91.00567253 0 0 0 90.90637547 90.90637546 91.00567253 91.00567253 0 0 0 90.90637653-90.90637546 90.980848 90.980848 0 0 0-90.90637653-90.90637547z m0 137.82419413c-25.8668608 0-46.91781867-21.02613333-46.9178176-46.89299413s21.05095787-46.91781867 46.9178176-46.91781867 46.91781867 21.05095787 46.91781866 46.91781867-21.05095787 46.89299413-46.91781866 46.89299413z"  horiz-adv-x="1024" />

    
    <glyph glyph-name="5" unicode="&#58900;" d="M769.322667 831.99999967h68.693333c36.565333 0 79.317333-39.936 79.317333-78.208v-782.165333c0-38.144-43.221333-78.208-79.274666-78.208H185.941333c-36.608 0-79.274667 39.893333-79.274666 78.208V753.79199967C106.666667 792.06399967 149.461333 831.99999967 185.941333 831.99999967H308.906667c16.469333 0 38.144-7.04 51.370666-16.64l24.021334-17.536c5.973333-4.352 18.688-8.490667 26.24-8.490666h220.202666c7.424 0 20.309333 4.181333 26.24 8.490666l24.021334 17.493334c13.226667 9.685333 34.56 16.682667 50.944 16.682666h37.376zM266.410667 789.33333367H185.941333c-13.568 0-36.608-21.504-36.608-35.541334v-782.165333c0-14.08 22.954667-35.541333 36.608-35.541333h652.117334c13.226667 0 36.608 21.717333 36.608 35.541333V753.79199967c0 14.037333-23.04 35.541333-36.608 35.541334h-106.112c-7.338667 0-19.84-4.096-25.813334-8.490667l-24.021333-17.493333c-13.226667-9.642667-34.944-16.682667-51.370667-16.682667H410.538667c-16.64 0-38.101333 6.997333-51.370667 16.64l-24.021333 17.536A56.32 56.32 0 0 1 308.906667 789.33333367h-42.496zM320 490.66666667h384a21.333333 21.333333 0 1 1 0 42.666667h-384a21.333333 21.333333 0 0 1 0-42.666667zM320 319.99999966999997h384a21.333333 21.333333 0 1 1 0 42.666667h-384a21.333333 21.333333 0 1 1 0-42.666667zM320 149.33333367h384a21.333333 21.333333 0 1 1 0 42.666666h-384a21.333333 21.333333 0 1 1 0-42.666666z"  horiz-adv-x="1024" />

    
    <glyph glyph-name="tupian" unicode="&#59101;" d="M273.81 446.254c26.866 0 44.772 8.955 62.681 26.862 17.908 17.908 26.867 40.294 26.867 62.682 0 22.388-8.959 44.772-26.867 62.682-17.907 17.913-35.815 26.866-62.681 26.866-26.862 0-44.772-8.955-62.682-26.866-17.908-17.908-26.862-35.815-26.862-62.682 0-26.862 8.954-44.772 26.862-62.682 17.908-17.907 40.293-26.862 62.682-26.862v0zM273.81 446.254zM837.95 356.706l-192.526 192.526-237.296-237.298-76.111 76.114-147.75-147.75v-89.543h653.683v205.953zM837.95 356.706zM914.060 728.323h-805.909c-22.388 0-44.772-22.387-44.772-44.772v-595.477c0-22.387 22.387-44.772 44.772-44.772h805.908c22.388 0 44.772 22.388 44.772 44.772v595.475c0.001 26.866-22.386 44.775-44.771 44.775v0zM914.060 92.546h-805.909v591.002h805.908v-591.002h0.001zM914.060 92.546z"  horiz-adv-x="1024" />

    
    <glyph glyph-name="phone" unicode="&#59282;" d="M746.66666666 298.66666666000003c-64-64-64-128-128-128s-128 64-192 128-128 128-128 192 64 64 128 128-128 256-192 256-192-192-192-192c0-128 131.488-387.488 256-512s384-256 512-256c0 0 192 128 192 192s-192 256-256 192z"  horiz-adv-x="1024" />

    
    <glyph glyph-name="email" unicode="&#59115;" d="M490.338462 303.261538c11.815385-11.815385 29.538462-11.815385 41.353846 0l445.046154 413.538462c7.876923 15.753846 5.907692 41.353846-25.6 41.353846l-880.246154-1.969231c-23.630769 0-43.323077-21.661538-25.6-41.353846l445.046154-411.569231zM984.615385 555.323077c0 19.692308-23.630769 31.507692-39.384616 17.723077L596.676923 252.06153800000004c-23.630769-21.661538-53.169231-33.476923-84.676923-33.476923s-61.046154 11.815385-84.676923 31.507693L80.738462 573.046154c-15.753846 13.784615-39.384615 3.938462-39.384616-17.723077C39.384615 561.230769 39.384615 108.30769199999997 39.384615 108.30769199999997c0-43.323077 35.446154-78.769231 78.769231-78.76923h787.692308c43.323077 0 78.769231 35.446154 78.769231 78.76923V555.323077z"  horiz-adv-x="1024" />

    
    <glyph glyph-name="dingwei" unicode="&#58896;" d="M518.23376656 56.10389625000005s296.72727281 254.33766187 296.72727281 518.64935062C812.46753219 734.33766188 680.31168875 864 518.23376656 864S221.50649375 734.33766188 221.50649375 574.75324688c0-274.28571469 296.72727281-518.64935062 296.72727281-518.64935063zM356.15584437 567.2727271900001c0 89.76623344 72.31168875 162.07792219 162.07792219 162.07792218S680.31168875 657.03896063 680.31168875 567.2727271900001s-72.31168875-162.07792219-162.07792219-162.07792219-162.07792219 74.805195-162.07792219 162.07792219zM752.62337656 213.19480499999997c-19.94805188-24.93506531-37.4025975-49.87012969-57.35064937-69.81818156 206.96103938-12.46753219 251.84415562-54.85714313 261.81818156-77.29870125-9.97402594-24.93506531-149.61039-84.77922094-426.38961-84.77922094-276.77922094-2.49350625-416.41558406 59.84415562-423.89610375 82.28571469 7.48051969 19.94805188 39.89610375 59.84415562 229.4025975 74.80519406-17.45454563 19.94805188-37.4025975 44.88311719-57.35064938 69.8181825C124.25974063 190.75324688 32 153.35064938000005 32 66.07792218999998c0-127.16883094 314.18181844-159.58441594 501.194805-159.58441594 187.01298656 0 501.194805 34.90909125 501.194805 159.58441594 0 92.25974063-114.70129875 132.15584437-281.76623344 147.11688281z"  horiz-adv-x="1069" />

    
    <glyph glyph-name="gouwuche1" unicode="&#58881;" d="M1007.05340871 476.53798876c-0.63433387 16.54475435-14.23621575 29.7630208-30.93578638 29.7630208L366.31135459 506.30100956c-17.09825593 0-30.95907669-13.86356167-30.95907669-30.96044658l0-6.19263771c0-17.10236558 13.8608219-30.96455737 30.95907669-30.96455738l560.58028032 0-54.04172174-205.9997275-530.57613027-40.82756494-112.71559055 352.09527751 0 0.00410965c0 17.10236558-13.86219179 30.96592725-30.96318748 30.96592725L48.07829504 574.4213910000001c-17.10236558 0-30.96455737-13.86356167-30.96455737-30.96592725l0-6.19263773c0-17.09688491 13.8608219-30.96318749 30.96455737-30.96318747l119.40966741 0 137.54779307-429.65258127c-24.44447744-18.66833579-40.21378162-48.11350471-40.21378162-81.24000484 0-56.42972274 45.75016391-102.17851677 102.18125767-102.17851676l7.22291712 0c56.43109376 0 102.18125767 45.74879403 102.18125768 102.17851676 0 11.94137827-2.05918891 23.40460771-5.8240933 34.05813533l259.35094215 0c-3.76490439-10.65352875-5.8240933-22.11812807-5.8240933-34.05813533 0-56.42972274 45.74879403-102.17851677 102.17988665-102.17851676l8.08468025 0c56.43520341 0 102.18399744 45.74879403 102.18399744 102.17851676s-45.74879403 102.17851677-102.18399744 102.17851677l-0.17125604 0-7.91342307 0L374.22066802 97.58557148l-1.92903396 0-8.67106247 27.08182813 531.52283648 40.90017792c16.46392093-2.45650432 32.92784185 6.61324345 38.68891364 22.30034545l0.67680597 2.57843883c0.26990023 0.87683413 0.50143915 1.76599723 0.69598663 2.66338191l68.9917349 262.98021205c1.53171854 3.29223623 2.50171619 6.90232434 2.78531641 10.70148039C1007.50278542 470.07134002 1007.5082661 473.34850639 1007.05340871 476.53798876L1007.05340871 476.53798876zM828.69997113 29.466559930000017l2.40855268 0c18.80945095 0 34.05813533-15.25279517 34.05813532-34.06224612 0-18.81082083-15.24868437-34.05813533-34.05813532-34.05813532l-2.40855268 0c-18.80945095 0-34.06224611 15.24731449-34.06224612 34.05813532C794.63772501 14.213764760000004 809.89052018 29.466559930000017 828.69997113 29.466559930000017L828.69997113 29.466559930000017zM371.81348637 29.466559930000017c18.81493163 0 34.063616-15.25279517 34.063616-34.06224612 0-18.81082083-15.24868437-34.05813533-34.063616-34.05813532l-2.403072 0c-18.80945095 0-34.06224611 15.24731449-34.06224612 34.05813532 0 18.80945095 15.25279517 34.06224611 34.06224612 34.06224612L371.81348637 29.466559930000017 371.81348637 29.466559930000017zM371.81348637 29.466559930000017"  horiz-adv-x="1024" />

    
    <glyph glyph-name="gouwuche" unicode="&#58899;" d="M310.01692957 81.02714141000001c-55.79767581 0-100.48564907-45.1932763-100.48564907-100.99095325 0-55.79767581 44.68913721-100.99095325 100.48564907-100.99095325s100.99095325 45.1932763 100.99095324 100.99095325C411.00904675 35.83270001999995 365.81460651 81.02714141000001 310.01692957 81.02714141000001zM7.04407097 888.95592903l0-100.99095324 100.99095324 0L289.56725134 404.95614635l-68.16947541-123.7144997c-7.82639104-14.64333881-12.37179961-31.05524167-12.37179961-48.72807652 0-55.79767581 45.1932763-100.99095325 100.99095325-100.99095324l605.94688113 0 0 100.99095324L331.47838123 232.51357127000006c-7.06959929 0-12.62445113 5.55485184-12.62445113 12.62445113 0 2.27270429 0.50530418 4.29159197 1.51474745 6.05899093l45.1932763 82.30751005 376.19188167 0c37.87218944 0 70.94631879 20.95614635 88.36766606 52.01022407l180.52161877 327.71645668c4.04010439 7.06959929 6.31164359 15.40129451 6.3116436 24.2382939 0 28.02458169-22.72354645 50.49547662-50.49547662 50.49547662L219.88302848 787.96497579l-47.97128477 100.99095324C171.91174371 888.95592903 7.04407097 888.95592903 7.04407097 888.95592903zM814.97285859 81.02714141000001c-55.79767581 0-100.48564907-45.1932763-100.48564906-100.99095325 0-55.79767581 44.68913721-100.99095325 100.48564906-100.99095325 55.79767581 0 100.99095325 45.1932763 100.99095325 100.99095325C915.96381184 35.83270001999995 870.7705344 81.02714141000001 814.97285859 81.02714141000001z"  horiz-adv-x="1024" />

    
    <glyph glyph-name="sousuo" unicode="&#59075;" d="M918.385-17.233 749.222 151.93c-2.931 2.93-6.58 4.366-9.989 6.579 98.28 138.954 86.077 332.163-38.342 456.582-139.014 139.073-364.464 139.073-503.538 0-139.073-139.014-139.073-364.403 0-503.538 125.794-125.795 321.636-136.562 460.948-34.814 2.213-3.169 3.589-6.639 6.34-9.45l169.162-169.162c23.448-23.388 61.253-23.388 84.582 0C941.714-78.426 941.714-40.561 918.385-17.233L918.385-17.233zM629.649 182.914c-99.655-99.654-261.22-99.654-360.934 0-99.655 99.654-99.655 261.279 0 360.935 99.654 99.654 261.22 99.654 360.934 0C729.363 444.134 729.363 282.569 629.649 182.914L629.649 182.914z"  horiz-adv-x="1029" />

    
    <glyph glyph-name="jia" unicode="&#59135;" d="M972.487789 437.04717 588.747965 437.04717 588.747965 820.786994 435.252035 820.786994 435.252035 437.04717 51.512211 437.04717 51.512211 283.55124 435.252035 283.55124 435.252035-100.188584 588.747965-100.188584 588.747965 283.55124 972.487789 283.55124Z"  horiz-adv-x="1024" />

    
    <glyph glyph-name="duigou11" unicode="&#58999;" d="M967.104 798.08c-291.968-178.944-503.744-404.8-599.04-518.144L134.976 462.592 32 379.648l402.88-409.728c69.312 177.6 288.832 524.672 557.12 771.264L967.104 798.08 967.104 798.08M967.104 798.08 967.104 798.08z"  horiz-adv-x="1024" />

    
    <glyph glyph-name="jian1" unicode="&#58910;" d="M589.62432 461.87008H64.27648v-153.51808h895.44704V461.87008h-370.0992z"  horiz-adv-x="1024" />

    
    <glyph glyph-name="yuanquan" unicode="&#58920;" d="M179.2 372.05a33.333 33.333 0 1 1 682.66 0 33.333 33.333 0 1 1-682.66 0z"  horiz-adv-x="1024" />

    
    <glyph glyph-name="jiazai" unicode="&#58880;" d="M512 64c-43.2 0-85.12 8.448-124.544 25.152-38.08 16.128-72.32 39.168-101.696 68.544-29.376 29.376-52.416 63.616-68.544 101.696C200.448 298.88 192 340.8 192 384s8.448 85.12 25.152 124.544c16.128 38.08 39.168 72.32 68.544 101.696 29.376 29.376 63.616 52.416 101.696 68.544C426.88 695.552 468.8 704 512 704c34.048 0 67.584-5.312 99.712-15.872l-23.936-72.96C563.392 623.168 537.92 627.2 512 627.2c-64.96 0-126.016-25.28-171.968-71.232C294.08 510.016 268.8 448.96 268.8 384s25.28-126.016 71.232-171.968C385.984 166.08 447.04 140.8 512 140.8s126.016 25.28 171.968 71.232C729.92 257.984 755.2 319.04 755.2 384c0 28.032-4.736 55.552-14.016 81.664-9.024 25.28-22.08 48.768-38.912 69.824l60.032 47.872c22.144-27.712 39.36-58.688 51.2-91.968 12.288-34.432 18.496-70.592 18.496-107.456 0-43.2-8.448-85.12-25.152-124.544-16.128-38.08-39.168-72.32-68.544-101.696-29.376-29.376-63.616-52.416-101.696-68.544C597.12 72.448 555.2 64 512 64z"  horiz-adv-x="1024" />

    
    <glyph glyph-name="duigou-copy" unicode="&#58921;" d="M512 894.656C235.114667 894.656 10.666667 670.208 10.666667 393.322667s224.448-501.333333 501.333333-501.333334 501.333333 224.448 501.333333 501.333334S788.885333 894.656 512 894.656z m-48.277333-746.666667c-79.893333 93.504-173.909333 164.757333-239.722667 187.008l155.114667 89.045334 75.221333-138.026667s122.218667 280.469333 314.965333 373.973333c-4.736-66.794667-23.530667-124.672 9.365334-195.904-84.608-17.813333-258.538667-218.154667-314.944-316.096z"  horiz-adv-x="1024" />

    
    <glyph glyph-name="cuowu" unicode="&#58917;" d="M512 464.448L351.104 625.344 270.656 544.896 431.552 384l-160.896-160.896 80.448-80.448L512 303.552l160.896-160.896 80.448 80.448L592.448 384l160.896 160.896-80.448 80.448L512 464.448zM512-128A512 512 0 1 0 512 896a512 512 0 0 0 0-1024z"  horiz-adv-x="1024" />

    
    <glyph glyph-name="right" unicode="&#58888;" d="M925.589333 384c0-228.373333-185.173333-413.589333-413.589333-413.589333-228.437333 0-413.589333 185.216-413.589333 413.589333 0 228.437333 185.173333 413.589333 413.589333 413.589333S925.589333 612.437333 925.589333 384z m-250.304-0.021333l-210.176 210.197333-52.608-52.586667 159.637334-159.637333-157.610667-157.589333 50.581333-50.538667 210.176 210.154667z"  horiz-adv-x="1024" />

    
    <glyph glyph-name="left" unicode="&#58889;" d="M98.410667 384c0-228.373333 185.173333-413.589333 413.589333-413.589333S925.589333 155.626667 925.589333 384c0 228.437333-185.173333 413.589333-413.589333 413.589333C283.562667 797.589333 98.410667 612.437333 98.410667 384z m250.282666-0.021333l210.176 210.197333 52.608-52.586667-159.637333-159.637333 157.589333-157.589333-50.56-50.538667-210.176 210.154667z"  horiz-adv-x="1024" />

    


  </font>
</defs>
</svg>
